<svg xmlns="http://www.w3.org/2000/svg" version="1.1" xmlns:xlink="http://www.w3.org/1999/xlink" width="1500" height="505" viewBox="0 0 1500 505"><svg xml:space="preserve" width="1500" height="505" data-version="2" data-id="lg_zkTkqU5biIt5rTwlMb" viewBox="0 0 255 505" x="0" y="0"><rect width="100%" height="100%" fill="transparent"></rect><path fill="#fff" d="M107.34 499.95H68v-194.6h123.71v39.34h-84.37v37.39h79.09v39.34h-79.09zM78.71 315.78v173.75h17.93v-79.1h79.09V392.5H96.64v-58.79h84.65v-17.93zM125.918 5.049c-68.039 0-123.42 55.38-123.42 123.419 0 68.07 55.381 123.42 123.42 123.42 68.07 0 123.42-55.35 123.42-123.42 0-68.039-55.35-123.42-123.42-123.42m0 242.093c-65.539 0-118.673-53.134-118.673-118.673S60.38 9.796 125.919 9.796s118.673 53.133 118.673 118.672-53.134 118.673-118.673 118.673"></path><path fill="#fff" d="M165.602 77.043H86.234a11.709 11.709 0 0 0-11.74 11.74v79.37a11.709 11.709 0 0 0 11.74 11.74h79.368a11.709 11.709 0 0 0 11.74-11.74v-79.37a11.709 11.709 0 0 0-11.74-11.74m6.994 91.11a6.996 6.996 0 0 1-6.994 6.993H86.234a6.962 6.962 0 0 1-6.994-6.994V88.784a6.996 6.996 0 0 1 6.994-6.994h79.368a6.996 6.996 0 0 1 6.994 6.994zM93.228 62.074a2.373 2.373 0 0 0-2.374 2.373v6.962a2.373 2.373 0 1 0 4.747 0v-6.962a2.373 2.373 0 0 0-2.373-2.373m13.07 0a2.373 2.373 0 0 0-2.374 2.373v6.962a2.373 2.373 0 0 0 4.747 0v-6.962a2.373 2.373 0 0 0-2.374-2.373m13.07 0a2.373 2.373 0 0 0-2.373 2.373v6.962a2.373 2.373 0 0 0 4.747 0v-6.962a2.373 2.373 0 0 0-2.374-2.373m13.102 0a2.373 2.373 0 0 0-2.374 2.373v6.962a2.373 2.373 0 0 0 4.747 0v-6.962a2.373 2.373 0 0 0-2.373-2.373m13.07 0a2.373 2.373 0 0 0-2.374 2.373v6.962a2.373 2.373 0 0 0 4.747 0v-6.962a2.373 2.373 0 0 0-2.373-2.373m13.07 0a2.373 2.373 0 0 0-2.374 2.373v6.962a2.373 2.373 0 0 0 4.747 0v-6.962a2.373 2.373 0 0 0-2.374-2.373M93.228 183.12a2.373 2.373 0 0 0-2.374 2.373v6.962a2.373 2.373 0 0 0 4.747 0v-6.962a2.373 2.373 0 0 0-2.373-2.373m13.07 0a2.373 2.373 0 0 0-2.374 2.373v6.962a2.373 2.373 0 0 0 4.747 0v-6.962a2.373 2.373 0 0 0-2.374-2.373m13.07 0a2.373 2.373 0 0 0-2.373 2.373v6.962a2.373 2.373 0 0 0 4.747 0v-6.962a2.373 2.373 0 0 0-2.374-2.373m13.102 0a2.373 2.373 0 0 0-2.374 2.373v6.962a2.373 2.373 0 0 0 4.747 0v-6.962a2.373 2.373 0 0 0-2.373-2.373m13.07 0a2.373 2.373 0 0 0-2.374 2.373v6.962a2.373 2.373 0 0 0 4.747 0v-6.962a2.373 2.373 0 0 0-2.373-2.373m13.07 0a2.373 2.373 0 0 0-2.374 2.373v6.962a2.373 2.373 0 0 0 4.747 0v-6.962a2.373 2.373 0 0 0-2.374-2.373m-89.716-24.336H61.93a2.373 2.373 0 0 0 0 4.747h6.962a2.373 2.373 0 0 0 0-4.747m0-13.07H61.93a2.373 2.373 0 0 0 0 4.747h6.962a2.373 2.373 0 0 0 0-4.747m0-13.07H61.93a2.373 2.373 0 0 0 0 4.747h6.962a2.373 2.373 0 0 0 0-4.747m0-13.101H61.93a2.373 2.373 0 0 0 0 4.747h6.962a2.373 2.373 0 0 0 0-4.747m0-13.07H61.93a2.373 2.373 0 0 0 0 4.747h6.962a2.373 2.373 0 0 0 0-4.747m0-13.07H61.93a2.373 2.373 0 1 0 0 4.747h6.962a2.373 2.373 0 1 0 0-4.747m121.046 65.38h-6.962a2.373 2.373 0 0 0 0 4.748h6.962a2.373 2.373 0 0 0 0-4.747m0-13.07h-6.962a2.373 2.373 0 0 0 0 4.747h6.962a2.373 2.373 0 0 0 0-4.747m0-13.07h-6.962a2.373 2.373 0 0 0 0 4.747h6.962a2.373 2.373 0 0 0 0-4.747m0-13.101h-6.962a2.373 2.373 0 0 0 0 4.747h6.962a2.373 2.373 0 0 0 0-4.747m0-13.07h-6.962a2.373 2.373 0 0 0 0 4.747h6.962a2.373 2.373 0 0 0 0-4.747m-6.994-8.323h6.962a2.373 2.373 0 0 0 0-4.747h-6.962a2.373 2.373 0 0 0 0 4.747"></path></svg></svg>