<svg xmlns="http://www.w3.org/2000/svg" version="1.1" xmlns:xlink="http://www.w3.org/1999/xlink" width="1500" height="1500" viewBox="0 0 1500 1500"><rect width="1500" height="1500" x="0" y="0" id="background" stroke="transparent" fill="#263aff"></rect><svg xml:space="preserve" width="1000" height="1000" data-version="2" data-id="lg_S7Shx0kOe3tlmcj7pm" viewBox="0 0 544 243" x="250" y="250"><rect width="100%" height="100%" fill="transparent"></rect><path fill="#fff" d="M250.175 9.24v58.72H79.355v32.97q16.02.32 48.05.32 55.26 0 112.41-1.89v61.55q-57.15-2.2-120.58-2.2-26.37 0-39.88.31v78.19h-74.1q2.51-60.92 2.51-113.98 0-53.07-2.51-113.99zm154.49 148.84v-50.87h134.08v130h-55.27l-6.59-55.58q-9.42 29.83-33.6 44.27-24.18 14.45-59.03 14.45-31.72 0-56.36-14.13-24.65-14.13-38.63-40.51-13.97-26.37-13.97-61.54 0-56.21 33.6-88.86 33.6-32.66 104.56-32.66 40.51 0 71.44 13.19 30.92 13.19 52.59 40.82-14.13 7.22-55.26 28.89l-7.85 4.39q-12.25-12.24-28.58-18.37-16.33-6.12-34.54-6.12-30.14 0-44.9 15.86-14.76 15.85-14.76 39.09 0 25.12 15.86 40.51 15.86 15.38 48.51 15.38 14.13 0 27.48-4.08 13.34-4.08 22.45-14.13z"></path></svg></svg>